<svg width="67" height="67" viewBox="0 0 67 67" fill="none" xmlns="http://www.w3.org/2000/svg">
<path d="M23.0312 54.4375V62.8125V54.4375ZM10.4688 4.1875H35.5938C36.7043 4.1875 37.7695 4.62868 38.5548 5.41399C39.3401 6.1993 39.7812 7.26441 39.7812 8.375V62.2891C39.7812 62.4279 39.7261 62.561 39.6279 62.6592C39.5298 62.7574 39.3966 62.8125 39.2578 62.8125H6.28125V8.375C6.28125 7.26441 6.72243 6.1993 7.50774 5.41399C8.29305 4.62868 9.35816 4.1875 10.4688 4.1875V4.1875ZM41.875 25.125H56.5312C57.6418 25.125 58.707 25.5662 59.4923 26.3515C60.2776 27.1368 60.7188 28.2019 60.7188 29.3125V62.8125H39.7812V27.2188C39.7812 26.6635 40.0018 26.1309 40.3945 25.7382C40.7871 25.3456 41.3197 25.125 41.875 25.125Z" stroke="#5C81CA" stroke-width="3" stroke-linecap="round" stroke-linejoin="round"/>
<path d="M12.8348 56.5143C12.4011 56.571 11.9606 56.4905 11.5751 56.2841C11.1895 56.0777 10.8783 55.7558 10.685 55.3635C10.4918 54.9712 10.4262 54.5282 10.4975 54.0967C10.5689 53.6653 10.7735 53.267 11.0827 52.9577C11.392 52.6485 11.7903 52.4439 12.2217 52.3725C12.6532 52.3012 13.0962 52.3668 13.4885 52.56C13.8808 52.7533 14.2027 53.0645 14.4091 53.4501C14.6155 53.8356 14.696 54.2761 14.6393 54.7098C14.5795 55.1674 14.3701 55.5924 14.0437 55.9187C13.7174 56.2451 13.2924 56.4545 12.8348 56.5143ZM12.8348 46.0456C12.4011 46.1023 11.9606 46.0218 11.5751 45.8154C11.1895 45.609 10.8783 45.287 10.685 44.8947C10.4918 44.5024 10.4262 44.0594 10.4975 43.628C10.5689 43.1965 10.7735 42.7982 11.0827 42.489C11.392 42.1797 11.7903 41.9751 12.2217 41.9038C12.6532 41.8324 13.0962 41.898 13.4885 42.0913C13.8808 42.2845 14.2027 42.5958 14.4091 42.9813C14.6155 43.3669 14.696 43.8074 14.6393 44.241C14.5795 44.6986 14.3701 45.1236 14.0437 45.45C13.7174 45.7763 13.2924 45.9857 12.8348 46.0456ZM12.8348 35.5768C12.4011 35.6335 11.9606 35.553 11.5751 35.3466C11.1895 35.1402 10.8783 34.8183 10.685 34.426C10.4918 34.0337 10.4262 33.5907 10.4975 33.1592C10.5689 32.7278 10.7735 32.3295 11.0827 32.0202C11.392 31.711 11.7903 31.5064 12.2217 31.435C12.6532 31.3637 13.0962 31.4293 13.4885 31.6225C13.8808 31.8158 14.2027 32.127 14.4091 32.5126C14.6155 32.8981 14.696 33.3386 14.6393 33.7723C14.5795 34.2299 14.3701 34.6549 14.0437 34.9812C13.7174 35.3076 13.2924 35.517 12.8348 35.5768ZM12.8348 25.1081C12.4011 25.1648 11.9606 25.0843 11.5751 24.8779C11.1895 24.6715 10.8783 24.3495 10.685 23.9572C10.4918 23.5649 10.4262 23.1219 10.4975 22.6905C10.5689 22.259 10.7735 21.8607 11.0827 21.5515C11.392 21.2422 11.7903 21.0376 12.2217 20.9663C12.6532 20.8949 13.0962 20.9605 13.4885 21.1538C13.8808 21.347 14.2027 21.6583 14.4091 22.0438C14.6155 22.4294 14.696 22.8699 14.6393 23.3035C14.5795 23.7611 14.3701 24.1861 14.0437 24.5125C13.7174 24.8388 13.2924 25.0482 12.8348 25.1081ZM12.8348 14.6393C12.4011 14.696 11.9606 14.6155 11.5751 14.4091C11.1895 14.2027 10.8783 13.8808 10.685 13.4885C10.4918 13.0962 10.4262 12.6532 10.4975 12.2217C10.5689 11.7903 10.7735 11.392 11.0827 11.0827C11.392 10.7735 11.7903 10.5689 12.2217 10.4975C12.6532 10.4262 13.0962 10.4918 13.4885 10.685C13.8808 10.8783 14.2027 11.1895 14.4091 11.5751C14.6155 11.9606 14.696 12.4011 14.6393 12.8348C14.5795 13.2924 14.3701 13.7174 14.0437 14.0437C13.7174 14.3701 13.2924 14.5795 12.8348 14.6393ZM23.3035 46.0456C22.8699 46.1023 22.4294 46.0218 22.0438 45.8154C21.6583 45.609 21.347 45.287 21.1538 44.8947C20.9605 44.5024 20.8949 44.0594 20.9663 43.628C21.0376 43.1965 21.2422 42.7982 21.5515 42.489C21.8607 42.1797 22.259 41.9751 22.6905 41.9038C23.1219 41.8324 23.5649 41.898 23.9572 42.0913C24.3495 42.2845 24.6715 42.5958 24.8779 42.9813C25.0843 43.3669 25.1648 43.8074 25.1081 44.241C25.0482 44.6986 24.8388 45.1236 24.5125 45.45C24.1861 45.7763 23.7611 45.9857 23.3035 46.0456ZM23.3035 35.5768C22.8699 35.6335 22.4294 35.553 22.0438 35.3466C21.6583 35.1402 21.347 34.8183 21.1538 34.426C20.9605 34.0337 20.8949 33.5907 20.9663 33.1592C21.0376 32.7278 21.2422 32.3295 21.5515 32.0202C21.8607 31.711 22.259 31.5064 22.6905 31.435C23.1219 31.3637 23.5649 31.4293 23.9572 31.6225C24.3495 31.8158 24.6715 32.127 24.8779 32.5126C25.0843 32.8981 25.1648 33.3386 25.1081 33.7723C25.0482 34.2299 24.8388 34.6549 24.5125 34.9812C24.1861 35.3076 23.7611 35.517 23.3035 35.5768ZM23.3035 25.1081C22.8699 25.1648 22.4294 25.0843 22.0438 24.8779C21.6583 24.6715 21.347 24.3495 21.1538 23.9572C20.9605 23.5649 20.8949 23.1219 20.9663 22.6905C21.0376 22.259 21.2422 21.8607 21.5515 21.5515C21.8607 21.2422 22.259 21.0376 22.6905 20.9663C23.1219 20.8949 23.5649 20.9605 23.9572 21.1538C24.3495 21.347 24.6715 21.6583 24.8779 22.0438C25.0843 22.4294 25.1648 22.8699 25.1081 23.3035C25.0482 23.7611 24.8388 24.1861 24.5125 24.5125C24.1861 24.8388 23.7611 25.0482 23.3035 25.1081ZM23.3035 14.6393C22.8699 14.696 22.4294 14.6155 22.0438 14.4091C21.6583 14.2027 21.347 13.8808 21.1538 13.4885C20.9605 13.0962 20.8949 12.6532 20.9663 12.2217C21.0376 11.7903 21.2422 11.392 21.5515 11.0827C21.8607 10.7735 22.259 10.5689 22.6905 10.4975C23.1219 10.4262 23.5649 10.4918 23.9572 10.685C24.3495 10.8783 24.6715 11.1895 24.8779 11.5751C25.0843 11.9606 25.1648 12.4011 25.1081 12.8348C25.0482 13.2924 24.8388 13.7174 24.5125 14.0437C24.1861 14.3701 23.7611 14.5795 23.3035 14.6393ZM33.7723 56.5143C33.3386 56.571 32.8981 56.4905 32.5126 56.2841C32.127 56.0777 31.8158 55.7558 31.6225 55.3635C31.4293 54.9712 31.3637 54.5282 31.435 54.0967C31.5064 53.6653 31.711 53.267 32.0202 52.9577C32.3295 52.6485 32.7278 52.4439 33.1592 52.3725C33.5907 52.3012 34.0337 52.3668 34.426 52.56C34.8183 52.7533 35.1402 53.0645 35.3466 53.4501C35.553 53.8356 35.6335 54.2761 35.5768 54.7098C35.517 55.1674 35.3076 55.5924 34.9812 55.9187C34.6549 56.2451 34.2299 56.4545 33.7723 56.5143ZM33.7723 46.0456C33.3386 46.1023 32.8981 46.0218 32.5126 45.8154C32.127 45.609 31.8158 45.287 31.6225 44.8947C31.4293 44.5024 31.3637 44.0594 31.435 43.628C31.5064 43.1965 31.711 42.7982 32.0202 42.489C32.3295 42.1797 32.7278 41.9751 33.1592 41.9038C33.5907 41.8324 34.0337 41.898 34.426 42.0913C34.8183 42.2845 35.1402 42.5958 35.3466 42.9813C35.553 43.3669 35.6335 43.8074 35.5768 44.241C35.517 44.6986 35.3076 45.1236 34.9812 45.45C34.6549 45.7763 34.2299 45.9857 33.7723 46.0456ZM33.7723 35.5768C33.3386 35.6335 32.8981 35.553 32.5126 35.3466C32.127 35.1402 31.8158 34.8183 31.6225 34.426C31.4293 34.0337 31.3637 33.5907 31.435 33.1592C31.5064 32.7278 31.711 32.3295 32.0202 32.0202C32.3295 31.711 32.7278 31.5064 33.1592 31.435C33.5907 31.3637 34.0337 31.4293 34.426 31.6225C34.8183 31.8158 35.1402 32.127 35.3466 32.5126C35.553 32.8981 35.6335 33.3386 35.5768 33.7723C35.517 34.2299 35.3076 34.6549 34.9812 34.9812C34.6549 35.3076 34.2299 35.517 33.7723 35.5768Z" fill="#5C81CA"/>
<path d="M34.9832 24.5134C35.7983 23.6983 35.795 22.3734 34.9758 21.5542C34.1566 20.735 32.8318 20.7317 32.0166 21.5468C31.2015 22.3619 31.2049 23.6868 32.0241 24.506C32.8432 25.3252 34.1681 25.3285 34.9832 24.5134Z" fill="#5C81CA"/>
<path d="M33.7723 14.6393C33.3386 14.696 32.8981 14.6155 32.5126 14.4091C32.127 14.2027 31.8158 13.8808 31.6225 13.4885C31.4293 13.0962 31.3637 12.6532 31.435 12.2217C31.5064 11.7903 31.711 11.392 32.0202 11.0827C32.3295 10.7735 32.7278 10.5689 33.1592 10.4975C33.5907 10.4262 34.0337 10.4918 34.426 10.685C34.8183 10.8783 35.1402 11.1895 35.3466 11.5751C35.553 11.9606 35.6335 12.4011 35.5768 12.8348C35.517 13.2924 35.3076 13.7174 34.9812 14.0437C34.6549 14.3701 34.2299 14.5795 33.7723 14.6393ZM52.3438 52.3438C51.9297 52.3438 51.5249 52.4666 51.1806 52.6967C50.8363 52.9267 50.5679 53.2537 50.4094 53.6363C50.251 54.0189 50.2095 54.4399 50.2903 54.846C50.3711 55.2522 50.5705 55.6253 50.8633 55.9181C51.1561 56.2109 51.5292 56.4103 51.9353 56.4911C52.3415 56.5719 52.7625 56.5304 53.1451 56.3719C53.5276 56.2135 53.8546 55.9451 54.0847 55.6008C54.3148 55.2565 54.4376 54.8517 54.4376 54.4376C54.4376 53.8823 54.217 53.3497 53.8243 52.9571C53.4317 52.5644 52.8991 52.3438 52.3438 52.3438ZM52.3438 41.8751C51.9297 41.8751 51.5249 41.9979 51.1806 42.2279C50.8363 42.458 50.5679 42.785 50.4094 43.1676C50.251 43.5502 50.2095 43.9711 50.2903 44.3773C50.3711 44.7834 50.5705 45.1565 50.8633 45.4493C51.1561 45.7421 51.5292 45.9415 51.9353 46.0223C52.3415 46.1031 52.7625 46.0617 53.1451 45.9032C53.5276 45.7447 53.8546 45.4764 54.0847 45.132C54.3148 44.7877 54.4376 44.3829 54.4376 43.9688C54.4376 43.4135 54.217 42.881 53.8243 42.4883C53.4317 42.0957 52.8991 41.8751 52.3438 41.8751ZM52.3438 31.4063C51.9297 31.4063 51.5249 31.5291 51.1806 31.7592C50.8363 31.9892 50.5679 32.3162 50.4094 32.6988C50.251 33.0814 50.2095 33.5024 50.2903 33.9085C50.3711 34.3147 50.5705 34.6878 50.8633 34.9806C51.1561 35.2734 51.5292 35.4728 51.9353 35.5536C52.3415 35.6344 52.7625 35.5929 53.1451 35.4344C53.5276 35.276 53.8546 35.0076 54.0847 34.6633C54.3148 34.319 54.4376 33.9142 54.4376 33.5001C54.4376 32.9448 54.217 32.4122 53.8243 32.0196C53.4317 31.6269 52.8991 31.4063 52.3438 31.4063ZM43.9688 52.3438C43.5547 52.3438 43.1499 52.4666 42.8056 52.6967C42.4613 52.9267 42.1929 53.2537 42.0344 53.6363C41.876 54.0189 41.8345 54.4399 41.9153 54.846C41.9961 55.2522 42.1955 55.6253 42.4883 55.9181C42.7811 56.2109 43.1542 56.4103 43.5603 56.4911C43.9665 56.5719 44.3875 56.5304 44.7701 56.3719C45.1526 56.2135 45.4796 55.9451 45.7097 55.6008C45.9398 55.2565 46.0626 54.8517 46.0626 54.4376C46.0626 53.8823 45.842 53.3497 45.4493 52.9571C45.0567 52.5644 44.5241 52.3438 43.9688 52.3438ZM43.9688 41.8751C43.5547 41.8751 43.1499 41.9979 42.8056 42.2279C42.4613 42.458 42.1929 42.785 42.0344 43.1676C41.876 43.5502 41.8345 43.9711 41.9153 44.3773C41.9961 44.7834 42.1955 45.1565 42.4883 45.4493C42.7811 45.7421 43.1542 45.9415 43.5603 46.0223C43.9665 46.1031 44.3875 46.0617 44.7701 45.9032C45.1526 45.7447 45.4796 45.4764 45.7097 45.132C45.9398 44.7877 46.0626 44.3829 46.0626 43.9688C46.0626 43.4135 45.842 42.881 45.4493 42.4883C45.0567 42.0957 44.5241 41.8751 43.9688 41.8751ZM43.9688 31.4063C43.5547 31.4063 43.1499 31.5291 42.8056 31.7592C42.4613 31.9892 42.1929 32.3162 42.0344 32.6988C41.876 33.0814 41.8345 33.5024 41.9153 33.9085C41.9961 34.3147 42.1955 34.6878 42.4883 34.9806C42.7811 35.2734 43.1542 35.4728 43.5603 35.5536C43.9665 35.6344 44.3875 35.5929 44.7701 35.4344C45.1526 35.276 45.4796 35.0076 45.7097 34.6633C45.9398 34.319 46.0626 33.9142 46.0626 33.5001C46.0626 32.9448 45.842 32.4122 45.4493 32.0196C45.0567 31.6269 44.5241 31.4063 43.9688 31.4063Z" fill="#5C81CA"/>
</svg>
